<svg width="20" height="20" viewBox="0 0 20 20" fill="none" xmlns="http://www.w3.org/2000/svg">
<path fill-rule="evenodd" clip-rule="evenodd" d="M14.55 14.75H5.55C5.45 14.75 5.35 14.65 5.35 14.55V10.25H14.75V14.55C14.75 14.65 14.65 14.75 14.55 14.75ZM5.55 6.75H14.55C14.65 6.75 14.75 6.85 14.75 6.95V8.75H5.25V6.95C5.25 6.85 5.35 6.75 5.55 6.75ZM14.55 5.25H13.55V4.55C13.55 4.05 13.15 3.75 12.75 3.75C12.35 3.75 11.95 4.05 11.95 4.55V5.35H7.95V4.55C7.95 4.05 7.65 3.75 7.25 3.75C6.85 3.75 6.55 4.05 6.55 4.55V5.35H5.55C4.55 5.25 3.75 6.05 3.75 6.95V14.55C3.75 15.45 4.55 16.25 5.55 16.25H14.55C15.55 16.25 16.35 15.45 16.35 14.55V6.95C16.25 6.05 15.45 5.25 14.55 5.25Z" fill="white"/>
</svg>
