<svg width="20" height="20" viewBox="0 0 20 20" fill="none" xmlns="http://www.w3.org/2000/svg">
<path fill-rule="evenodd" clip-rule="evenodd" d="M10 5C12.8 5 15 7.2 15 10C15 12.8 12.8 15 10 15C7.2 15 5 12.8 5 10C5 7.2 7.2 5 10 5ZM10 6.8C9.6 6.8 9.2 7.1 9.2 7.6V10.6C9.2 11 9.5 11.4 10 11.4H12.5C12.9 11.4 13.3 11.1 13.3 10.6C13.3 10.1 13 9.8 12.5 9.8H10.7V7.5C10.8 7.1 10.4 6.8 10 6.8ZM10 3.5C6.4 3.5 3.5 6.4 3.5 10C3.5 13.6 6.4 16.5 10 16.5C13.6 16.5 16.5 13.6 16.5 10C16.5 6.4 13.6 3.5 10 3.5Z" fill="white"/>
</svg>
