<svg width="20" height="20" viewBox="0 0 20 20" fill="none" xmlns="http://www.w3.org/2000/svg">
<path fill-rule="evenodd" clip-rule="evenodd" d="M14.5 12.5C14.5 12.6 14.4 12.7 14.3 12.7H5.8C5.7 12.7 5.6 12.6 5.6 12.5V7.5C5.6 7.4 5.7 7.3 5.8 7.3H7.6V8.7C7.6 9.1 7.9 9.5 8.4 9.5C8.7 9.4 9 9.1 9 8.7V7.2H11V8.6C11 9 11.3 9.4 11.8 9.4C12.3 9.4 12.6 9.1 12.6 8.6V7.2H14.4C14.5 7.2 14.6 7.3 14.6 7.4V12.5H14.5ZM9 5.6C9 5 9.4 4.5 10 4.5C10.6 4.5 11 5 11 5.6V5.8H9V5.6ZM15.2 15.5C15.6 15.5 16 15.8 16 16.3C16 16.8 15.7 17 15.2 17H4.8C4.3 17 4 16.7 4 16.2C4 15.7 4.3 15.4 4.8 15.4H15.2V15.5ZM10 3C11.4 3 12.5 4.2 12.5 5.6V5.8H14.3C15.3 5.8 16.1 6.6 16.1 7.6V12.6C16.1 13.6 15.3 14.4 14.3 14.4H5.8C4.8 14.4 4 13.6 4 12.6V7.6C4 6.6 4.8 5.8 5.8 5.8H7.6V5.6C7.5 4.2 8.6 3 10 3Z" fill="white"/>
</svg>
