<svg width="20" height="21" viewBox="0 0 20 21" fill="none" xmlns="http://www.w3.org/2000/svg">
<path fill-rule="evenodd" clip-rule="evenodd" d="M12.6495 12.86L11.9495 10.36H13.3495L12.6495 12.86ZM7.34951 12.86L6.74951 10.36H8.14951L7.34951 12.86ZM16.5495 8.85999H15.2495L15.7495 6.95999C15.8495 6.55999 15.6495 6.15999 15.2495 6.05999C14.7495 5.85999 14.3495 6.15999 14.2495 6.55999L13.6495 8.85999H11.4495L10.7495 6.35999C10.6495 6.05999 10.3495 5.85999 9.94951 5.85999C9.64951 5.85999 9.34951 6.05999 9.24951 6.35999L8.54951 8.85999H6.34951L5.74951 6.55999C5.64951 6.15999 5.24951 5.85999 4.84951 6.05999C4.44951 6.15999 4.14951 6.55999 4.24951 6.95999L4.74951 8.85999H3.54951C3.04951 8.85999 2.74951 9.15999 2.74951 9.65999C2.74951 10.16 3.04951 10.46 3.54951 10.46H5.24951L6.64951 15.86C6.74951 16.16 7.04951 16.46 7.34951 16.46C7.64951 16.46 7.94951 16.26 8.04951 15.96L9.74951 10.46H10.4495L12.0495 15.86C12.1495 16.16 12.4495 16.36 12.7495 16.36C13.0495 16.36 13.3495 16.16 13.4495 15.76L14.8495 10.36H16.5495C16.9495 10.36 17.3495 10.06 17.3495 9.55999C17.3495 9.05999 16.9495 8.85999 16.5495 8.85999Z" fill="white"/>
</svg>
