<svg width="19" height="18" viewBox="0 0 19 18" fill="none" xmlns="http://www.w3.org/2000/svg">
<path d="M6.81133 0.111115C10.5113 0.111115 13.5113 3.11111 13.5113 6.81111C13.5113 7.51111 13.4113 8.21111 13.2113 8.81111C13.1113 9.21111 12.6113 9.51111 12.2113 9.31111C11.8113 9.11111 11.5113 8.71111 11.7113 8.31111C11.9113 7.81111 11.9113 7.31111 11.9113 6.81111C11.9113 4.01111 9.71133 1.81111 6.91133 1.81111C4.11133 1.81111 1.91133 4.01111 1.91133 6.81111C1.91133 9.61111 4.11133 11.8111 6.91133 11.8111C8.21133 11.8111 9.51133 11.3111 10.5113 10.3111C10.8113 10.0111 11.3113 10.0111 11.6113 10.2111L11.7113 10.3111L17.8113 16.4111C18.1113 16.7111 18.1113 17.3111 17.8113 17.6111C17.5113 17.9111 17.0113 17.9111 16.7113 17.7111L16.6113 17.6111L11.0113 12.0111L10.8113 12.1111C9.71133 12.9111 8.41133 13.4111 7.11133 13.4111H6.81133C3.11133 13.4111 0.111328 10.4111 0.111328 6.81111C0.111328 3.11111 3.11133 0.111115 6.81133 0.111115Z" fill="white"/>
</svg>
